# xmcd CD database file
#
# Track frame offsets:
#	183
#	10255
#	29770
#	52768
#	74928
#	85215
#	100398
#	118348
#	126950
#	155893
#	175448
#
# Disc length: 2413 seconds
#
# Revision: 0
# Processed by: cddbd v1.5.1PL2 Copyright (c) Steve Scherf et al.
# Submitted via: CDex 1.51
#
DISCID=a5096b0b
DTITLE=John McLaughlin - Time Remembered: John McLaughlin Plays Bill Evans
DYEAR=1993
DGENRE=Jazz
TTITLE0=John McLaughlin - Prologue
TTITLE1=Homage to Bill Evans - Very Early
TTITLE2=John McLaughlin - Only Child
TTITLE3=John McLaughlin - Waltz for Debby
TTITLE4=John McLaughlin - Homage
TTITLE5=John McLaughlin - My Bells
TTITLE6=John McLaughlin - Time Remembered
TTITLE7=John McLaughlin - Song for Helen
TTITLE8=John McLaughlin - Turn Out the Stars
TTITLE9=John McLaughlin - We Will Meet Again
TTITLE10=John McLaughlin - Epilogue
EXTD=YEAR: 1993
EXTT0=
EXTT1=
EXTT2=
EXTT3=
EXTT4=
EXTT5=
EXTT6=
EXTT7=
EXTT8=
EXTT9=
EXTT10=
PLAYORDER=
